<?xml version="1.0" encoding="UTF-8"?>
<svg id="Capa_2" data-name="Capa 2" xmlns="http://www.w3.org/2000/svg" viewBox="0 0 36 36">
  <defs>
    <style>
      .cls-1 {
        fill: #fff;
      }

      .cls-2 {
        fill: #102031;
      }
    </style>
  </defs>
  <g id="Capa_2-2" data-name="Capa 2">
    <g>
      <rect class="cls-2" width="36" height="36"/>
      <g>
        <path class="cls-1" d="M18,13.41l-6.6,11.44h4.81c.12,0,.22.06.28.16l1.71,2.96c.05.09-.01.21-.12.21H5.75l1.93-3.34,8.46-14.66,1.13-1.96c.32-.56,1.13-.56,1.45,0l1.13,1.96,4.04,6.99h-3.72l-2.18-3.77Z"/>
        <path class="cls-1" d="M30.25,28.19h-8.39c-.28,0-.54-.15-.68-.4l-.95-1.64c-.17-.29.04-.66.38-.66h4.37l-1.6-2.76h-3.77c-.52,0-.99-.21-1.33-.55-.35-.35-.56-.84-.55-1.38.01-.54.47-.95,1.01-.95h6.68l1.67,2.89,1.6,2.76,1.56,2.69Z"/>
      </g>
    </g>
  </g>
</svg>